<?xml version="1.0" encoding="utf-8"?>
<!-- Generator: Adobe Illustrator 27.5.0, SVG Export Plug-In . SVG Version: 6.00 Build 0)  -->
<svg version="1.1" id="Layer_1" xmlns="http://www.w3.org/2000/svg" xmlns:xlink="http://www.w3.org/1999/xlink" x="0px" y="0px"
	 viewBox="0 0 5657 4000" style="enable-background:new 0 0 5657 4000;" xml:space="preserve">
<g>
	<defs>
		<rect id="SVGID_1_" width="5657" height="4000"/>
	</defs>
	<clipPath id="SVGID_00000125570278919260217470000018151204647845798825_">
		<use xlink:href="#SVGID_1_"  style="overflow:visible;"/>
	</clipPath>
	
		<rect x="25.39" y="25.297" style="clip-path:url(#SVGID_00000125570278919260217470000018151204647845798825_);fill-rule:evenodd;clip-rule:evenodd;fill:#FFFFFF;" width="5606.22" height="3949.407"/>
	
		<path style="clip-path:url(#SVGID_00000125570278919260217470000018151204647845798825_);fill-rule:evenodd;clip-rule:evenodd;fill:#1C2A39;" d="
		M3494.619,3117.477v-62.865h46.707v10.627H3507.4v13.953h31.544v10.627H3507.4v17.037h35.158v10.619H3494.619z M3387.316,3117.477
		v-62.865h12.373l25.967,42.134v-42.134h11.803v62.865h-12.761l-25.565-41.324v41.324H3387.316z M3318.736,3117.477v-62.865h12.781
		v62.865H3318.736z M3222.048,3117.477v-62.341h12.774v51.721h31.638v10.619H3222.048z M3138.827,3094.388v-10.62h27.413v25.077
		c-2.663,2.595-6.52,4.854-11.595,6.833c-5.05,1.966-10.177,2.939-15.371,2.939c-6.594,0-12.345-1.376-17.245-4.136
		c-4.895-2.77-8.579-6.734-11.047-11.877c-2.463-5.125-3.699-10.733-3.699-16.779c0-6.554,1.381-12.383,4.123-17.488
		c2.762-5.092,6.787-9.016,12.091-11.732c4.052-2.094,9.077-3.139,15.099-3.139c7.823,0,13.957,1.649,18.36,4.925
		c4.39,3.291,7.226,7.817,8.485,13.602l-12.687,2.375c-0.879-3.091-2.554-5.53-5.002-7.328c-2.448-1.794-5.5-2.684-9.176-2.684
		c-5.55,0-9.968,1.758-13.243,5.287c-3.275,3.526-4.916,8.748-4.916,15.674c0,7.473,1.656,13.079,4.974,16.815
		c3.331,3.729,7.678,5.601,13.076,5.601c2.656,0,5.327-0.531,8.003-1.563c2.687-1.04,4.974-2.314,6.904-3.807v-7.973H3138.827z
		 M3035.67,3092.544l-8.767-23.268l-8.521,23.268H3035.67z M3059.024,3117.477h-13.761l-5.446-14.313h-25.314l-5.238,14.313h-13.518
		l24.499-62.865h13.502L3059.024,3117.477z M2925.425,3117.477v-52.237h-18.684v-10.627h50.056v10.627h-18.598v52.237H2925.425z
		 M2784.31,3117.477v-62.865h46.71v10.627h-33.936v13.953h31.552v10.627h-31.552v17.037h35.165v10.619H2784.31z M2667.062,3117.477
		v-62.865h19.144l11.306,42.88l11.177-42.88h19.187v62.865h-11.816l-0.043-49.49l-12.436,49.49h-12.279l-12.38-49.49l-0.051,49.49
		H2667.062z M2565.525,3086.005c0,7.129,1.653,12.527,4.958,16.213c3.303,3.673,7.505,5.515,12.594,5.515s9.262-1.837,12.538-5.472
		c3.26-3.655,4.887-9.127,4.887-16.435c0-7.212-1.584-12.598-4.766-16.139c-3.174-3.557-7.391-5.33-12.659-5.33
		c-5.261,0-9.506,1.801-12.723,5.386C2567.135,3073.342,2565.525,3078.755,2565.525,3086.005z M2552.388,3086.427
		c0-6.41,0.973-11.801,2.895-16.162c1.424-3.198,3.397-6.081,5.88-8.626c2.475-2.545,5.195-4.432,8.153-5.679
		c3.93-1.657,8.473-2.494,13.612-2.494c9.313,0,16.74,2.889,22.338,8.639c5.578,5.765,8.371,13.777,8.371,24.029
		c0,10.169-2.77,18.127-8.313,23.865c-5.535,5.75-12.954,8.619-22.224,8.619c-9.386,0-16.864-2.854-22.399-8.575
		C2555.166,3104.335,2552.388,3096.46,2552.388,3086.427z M2449.247,3097.113l12.423-1.234c0.747,4.146,2.245,7.171,4.527,9.122
		c2.272,1.943,5.347,2.912,9.211,2.912c4.08,0,7.168-0.868,9.234-2.595c2.072-1.728,3.115-3.744,3.115-6.058
		c0-1.493-0.439-2.747-1.31-3.802c-0.863-1.04-2.397-1.943-4.563-2.709c-1.483-0.524-4.865-1.434-10.148-2.755
		c-6.807-1.692-11.58-3.772-14.322-6.246c-3.865-3.463-5.787-7.7-5.787-12.684c0-3.205,0.907-6.218,2.714-9.013
		c1.821-2.798,4.441-4.92,7.858-6.382c3.42-1.462,7.536-2.201,12.38-2.201c7.889,0,13.833,1.748,17.813,5.249
		c4.001,3.491,6.081,8.146,6.289,13.981l-12.781,0.438c-0.541-3.24-1.698-5.565-3.476-6.992c-1.777-1.419-4.448-2.137-8.003-2.137
		c-3.671,0-6.551,0.769-8.622,2.289c-1.341,0.974-2.016,2.279-2.016,3.914c0,1.492,0.632,2.77,1.891,3.822
		c1.607,1.364,5.5,2.762,11.682,4.232c6.182,1.447,10.753,2.967,13.703,4.523c2.973,1.563,5.291,3.686,6.959,6.39
		c1.678,2.712,2.514,6.046,2.514,10.01c0,3.6-1,6.984-3.009,10.126c-2.016,3.147-4.852,5.492-8.521,7.012
		c-3.671,1.535-8.257,2.294-13.733,2.294c-7.975,0-14.099-1.829-18.375-5.5C2452.621,3109.46,2450.082,3104.12,2449.247,3097.113z
		 M2350.157,3117.477v-62.865h46.702v10.627h-33.928v13.953h31.552v10.627h-31.552v17.037h35.165v10.619H2350.157z
		 M2231.979,3117.477l-14.835-62.865h13.137l9.384,43.181l11.517-43.181h15.186l11.012,43.92l9.615-43.92h12.817l-15.206,62.865
		h-13.647l-12.428-46.996l-12.538,46.996H2231.979z M2154.365,3092.544l-8.767-23.268l-8.521,23.268H2154.365z M2177.719,3117.477
		h-13.761l-5.446-14.313h-25.314l-5.238,14.313h-13.518l24.499-62.865h13.502L2177.719,3117.477z"/>
	
		<path style="clip-path:url(#SVGID_00000125570278919260217470000018151204647845798825_);fill-rule:evenodd;clip-rule:evenodd;fill:#1C2A39;" d="
		M3901.415,2916.541v-81.23c0-20,12.662-37.53,33.042-37.53c20.383,0,28.724,16.916,28.724,36.913v81.847h37.671v-81.847
		c0-45.534-21.305-71.992-64.537-71.992c-19.771,0-37.368,6.152-50.957,27.692c-8.65-20.925-26.865-28.309-45.09-28.309
		c-14.515,0-32.113,5.542-40.144,20.923l-2.78-18.464h-34.898v151.997h37.679v-81.23c0-20,12.048-38.147,32.423-38.147
		c20.69,0,31.191,18.148,31.191,38.147v81.23H3901.415z M3523.681,2764.853v79.694c0,47.069,26.558,74.453,62.998,74.453
		c21.31,0,35.825-7.384,51.574-22.767l2.468,20.308h33.662v-151.688h-37.369v77.385c0,23.227-15.747,42.61-38.907,42.61
		c-24.09,0-36.75-17.533-36.75-40.609v-79.385H3523.681z M3436.847,2780.549c-17.598-15.388-35.51-20-59.291-20
		c-27.794,0-64.234,12.304-64.234,47.378c0,34.462,34.279,44.924,62.998,47.074c21.619,1.235,30.262,5.542,30.262,16.005
		c0,11.073-13.279,18.456-27.477,18.148c-16.986-0.306-41.695-9.228-52.504-21.224l-18.527,26.769
		c22.234,23.075,46.321,27.067,70.411,27.067c43.541,0,65.466-23.073,65.466-49.842c0-40.307-36.439-46.768-65.156-48.61
		c-19.454-1.235-28.417-6.77-28.417-16.615c0-9.537,9.882-15.079,27.797-15.079c14.515,0,26.867,3.385,37.676,13.536
		L3436.847,2780.549z M3106.361,2979.921v-81.227c10.809,16.612,34.589,21.54,50.646,21.54c48.789,0,76.896-35.079,76.896-79.381
		c0-44.615-31.194-79.386-78.133-79.386c-17.288,0-37.671,7.386-49.409,24.307l-2.468-20.923h-35.211v215.069H3106.361z
		 M3152.99,2883.929c-25.629,0-43.232-19.382-43.232-43.075c0-23.69,16.057-43.073,43.232-43.073
		c27.177,0,43.234,19.382,43.234,43.073C3196.224,2864.546,3178.626,2883.929,3152.99,2883.929z M2978.459,2916.541v-215.686
		h-40.454v215.686H2978.459z M2680.094,2916.541v-81.23c0-20,12.659-37.53,33.042-37.53s28.724,16.916,28.724,36.913v81.847h37.671
		v-81.847c0-45.534-21.305-71.992-64.539-71.992c-19.769,0-37.366,6.152-50.955,27.692c-8.65-20.925-26.867-28.309-45.09-28.309
		c-14.516,0-32.113,5.542-40.147,20.923l-2.778-18.464h-34.898v151.997h37.676v-81.23c0-20,12.05-38.147,32.426-38.147
		c20.69,0,31.192,18.148,31.192,38.147v81.23H2680.094z M2342.202,2823.007c5.558-19.691,22.234-29.536,42.615-29.536
		c21.615,0,37.059,9.845,39.527,29.536H2342.202z M2460.474,2854.084c5.873-62.462-25.938-93.843-76.894-93.843
		c-49.409,0-80.91,33.229-80.91,79.381c0,48.61,31.191,80.921,83.688,80.921c23.169,0,49.417-8.004,65.473-24.619l-24.09-23.69
		c-8.643,8.927-26.868,14.153-40.763,14.153c-26.558,0-42.925-13.536-45.392-32.304H2460.474z M2120.726,2764.853v151.688h37.676
		v-79.995c0-28.003,18.222-38.463,37.986-38.463c12.352,0,19.454,3.385,27.177,9.845l16.986-32.612
		c-8.343-8.305-23.47-14.457-39.225-14.457c-15.437,0-31.187,2.768-42.924,21.532l-2.778-17.538H2120.726z M1960.711,2795.929
		c25.319,0,41.383,22.15,41.383,44.924c0,23.075-13.896,44.61-41.383,44.61c-27.485,0-41.383-21.535-41.383-44.61
		C1919.328,2818.079,1933.534,2795.929,1960.711,2795.929z M1960.401,2761.777c-48.487,0-78.752,35.696-78.752,79.077
		c0,43.692,29.653,79.072,79.062,79.072c49.409,0,79.364-35.38,79.364-79.072
		C2040.075,2797.473,2008.888,2761.777,1960.401,2761.777z M1656.164,2700.855v215.686h151.938v-37.538h-111.175v-178.148H1656.164z
		"/>
	<g style="clip-path:url(#SVGID_00000125570278919260217470000018151204647845798825_);">
		<defs>
			<path id="SVGID_00000114794483741209032070000015748799524470268052_" d="M3711.533,2301.663
				c-412.863,475.639-1075.945,89.719-1318.647-522.075c-83.292-209.964-172.243-434.142-447.419-582.59
				C2913.233,792.485,2292.837,2336.167,3711.533,2301.663"/>
		</defs>
		<clipPath id="SVGID_00000152230691898827754670000010212022496274373299_">
			<use xlink:href="#SVGID_00000114794483741209032070000015748799524470268052_"  style="overflow:visible;"/>
		</clipPath>
		
			<linearGradient id="SVGID_00000006667114854046914240000010194342977498361476_" gradientUnits="userSpaceOnUse" x1="4216.5869" y1="2035.3425" x2="2142.2595" y2="1661.0765">
			<stop  offset="0" style="stop-color:#261362"/>
			<stop  offset="1" style="stop-color:#F900B7"/>
		</linearGradient>
		
			<rect x="1945.467" y="792.485" style="clip-path:url(#SVGID_00000152230691898827754670000010212022496274373299_);fill:url(#SVGID_00000006667114854046914240000010194342977498361476_);" width="1766.066" height="1984.816"/>
	</g>
	<defs>
		<filter id="Adobe_OpacityMaskFilter" filterUnits="userSpaceOnUse" x="2815.458" y="2277.024" width="896.075" height="237.503">
			<feColorMatrix  type="matrix" values="1 0 0 0 0  0 1 0 0 0  0 0 1 0 0  0 0 0 1 0"/>
		</filter>
	</defs>
	
		<mask maskUnits="userSpaceOnUse" x="2815.458" y="2277.024" width="896.075" height="237.503" id="SVGID_00000046302293147356737760000009282943583971151784_">
		<g style="filter:url(#Adobe_OpacityMaskFilter);">
			
				<linearGradient id="SVGID_00000142882270980543487570000018157490027072881798_" gradientUnits="userSpaceOnUse" x1="4390.2998" y1="2091.5488" x2="2515.2454" y2="2640.3328" gradientTransform="matrix(1 0 0 1 109.8887 -57.7222)">
				<stop  offset="0" style="stop-color:#FFFFFF"/>
				<stop  offset="1" style="stop-color:#000000"/>
			</linearGradient>
			
				<rect x="2815.458" y="2277.024" style="clip-path:url(#SVGID_00000125570278919260217470000018151204647845798825_);fill:url(#SVGID_00000142882270980543487570000018157490027072881798_);" width="896.075" height="237.507"/>
		</g>
	</mask>
	
		<path style="clip-path:url(#SVGID_00000125570278919260217470000018151204647845798825_);mask:url(#SVGID_00000046302293147356737760000009282943583971151784_);fill-rule:evenodd;clip-rule:evenodd;fill:#3E005D;" d="
		M3711.533,2301.663c-255.816,294.708-607.655,258.581-896.075,42.974c13.172,6.562,404.825,198.333,570.54-67.613
		C3480.827,2295.518,3588.333,2304.66,3711.533,2301.663"/>
	<g style="clip-path:url(#SVGID_00000125570278919260217470000018151204647845798825_);">
		<defs>
			<path id="SVGID_00000101817789511806041200000006818956097987800246_" d="M2372.495,1728.476c0,0,46.149,103.165,162.996,214.495
				c67.027,63.856,157.301,130.399,275.471,181.692c99.493,43.189,218.77,75.586,360.575,86.456
				c-117.946-52.339-208.363-123.824-280.66-205.269c-83.609-94.207-142.983-201.753-192.695-308.489
				c-169.932-364.829-226.912-720.15-752.715-500.363C2198.419,1333.457,2294.01,1533.905,2372.495,1728.476"/>
		</defs>
		<clipPath id="SVGID_00000119817749532917797630000006812445688132353458_">
			<use xlink:href="#SVGID_00000101817789511806041200000006818956097987800246_"  style="overflow:visible;"/>
		</clipPath>
		
			<linearGradient id="SVGID_00000049917267589040683560000015024913279887887236_" gradientUnits="userSpaceOnUse" x1="3070.5471" y1="1973.2036" x2="1894.5608" y2="1102.6858">
			<stop  offset="0" style="stop-color:#E3048A"/>
			<stop  offset="1" style="stop-color:#FFCF4B"/>
		</linearGradient>
		
			<rect x="1945.467" y="977.211" style="clip-path:url(#SVGID_00000119817749532917797630000006812445688132353458_);fill:url(#SVGID_00000049917267589040683560000015024913279887887236_);" width="1226.071" height="1233.908"/>
	</g>
	<defs>
		
			<filter id="Adobe_OpacityMaskFilter_00000123441084326226582160000003777348697638793628_" filterUnits="userSpaceOnUse" x="1945.467" y="1129.364" width="1226.071" height="1081.755">
			<feColorMatrix  type="matrix" values="1 0 0 0 0  0 1 0 0 0  0 0 1 0 0  0 0 0 1 0"/>
		</filter>
	</defs>
	
		<mask maskUnits="userSpaceOnUse" x="1945.467" y="1129.364" width="1226.071" height="1081.755" id="SVGID_00000119098799091438665920000013558114392783796611_">
		<g style="filter:url(#Adobe_OpacityMaskFilter_00000123441084326226582160000003777348697638793628_);">
			
				<linearGradient id="SVGID_00000072261829759349419000000006846379956646720421_" gradientUnits="userSpaceOnUse" x1="754.5494" y1="692.5648" x2="3327.0527" y2="2251.5347" gradientTransform="matrix(1 0 0 1 75.6235 -69.7164)">
				<stop  offset="0" style="stop-color:#FFFFFF"/>
				<stop  offset="1" style="stop-color:#000000"/>
			</linearGradient>
			
				<rect x="1945.467" y="1129.357" style="clip-path:url(#SVGID_00000125570278919260217470000018151204647845798825_);fill:url(#SVGID_00000072261829759349419000000006846379956646720421_);" width="1226.071" height="1081.762"/>
		</g>
	</mask>
	
		<path style="clip-path:url(#SVGID_00000125570278919260217470000018151204647845798825_);mask:url(#SVGID_00000119098799091438665920000013558114392783796611_);fill-rule:evenodd;clip-rule:evenodd;fill:#FDE3A7;" d="
		M1945.467,1196.998c706.214-80.577,384.559,858.889,1226.07,1014.121c-117.946-52.339-208.363-123.824-280.66-205.269
		c-83.609-94.207-142.983-201.753-192.695-308.489C2528.25,1332.531,2471.27,977.211,1945.467,1196.998"/>
	<g style="clip-path:url(#SVGID_00000125570278919260217470000018151204647845798825_);">
		<defs>
			<path id="SVGID_00000047746754098327238810000004593855332605958024_" d="M3499.324,1306.458
				c-495.63,119.751-916.326,1858.92-1533.144,981.193C2783.317,2274.464,2804.47,698.299,3499.324,1306.458"/>
		</defs>
		<clipPath id="SVGID_00000080921759489065600000000007328571994405862076_">
			<use xlink:href="#SVGID_00000047746754098327238810000004593855332605958024_"  style="overflow:visible;"/>
		</clipPath>
		
			<linearGradient id="SVGID_00000176722120344158105780000000507261462906869142_" gradientUnits="userSpaceOnUse" x1="2039.297" y1="2703.0828" x2="3545.4148" y2="1028.0135">
			<stop  offset="0" style="stop-color:#1B1464"/>
			<stop  offset="1" style="stop-color:#00FFFF"/>
		</linearGradient>
		
			<rect x="1966.18" y="698.299" style="clip-path:url(#SVGID_00000080921759489065600000000007328571994405862076_);fill:url(#SVGID_00000176722120344158105780000000507261462906869142_);" width="1533.144" height="2467.08"/>
	</g>
	<g style="clip-path:url(#SVGID_00000125570278919260217470000018151204647845798825_);">
		<defs>
			<path id="SVGID_00000067953540302718618940000003727759056561236889_" d="M2318.971,2165.413c0,0,95.248-14.679,240.118-83.603
				c28.198-13.425,58.283-28.906,89.921-46.725c54.324-30.627,113.211-68.172,174.942-114.143
				c111.002-82.634,231.216-192.466,350.724-338.104c106.49-141.6,213.692-249.576,324.649-276.38
				c-394.598-345.361-571.929,13.69-801.142,390.903c-50.719,83.453-103.977,167.807-162.691,245.609
				c-12.187,16.149-24.601,32.018-37.29,47.535C2443.92,2056.929,2384.86,2116.967,2318.971,2165.413"/>
		</defs>
		<clipPath id="SVGID_00000119106388044984080380000002290108709921016718_">
			<use xlink:href="#SVGID_00000067953540302718618940000003727759056561236889_"  style="overflow:visible;"/>
		</clipPath>
		
			<linearGradient id="SVGID_00000049923683745163410680000017420351403469899451_" gradientUnits="userSpaceOnUse" x1="1979.4238" y1="1891.0325" x2="3325.5544" y2="1416.449">
			<stop  offset="0" style="stop-color:#045304"/>
			<stop  offset="1" style="stop-color:#B0F122"/>
		</linearGradient>
		
			<rect x="2318.971" y="961.097" style="clip-path:url(#SVGID_00000119106388044984080380000002290108709921016718_);fill:url(#SVGID_00000049923683745163410680000017420351403469899451_);" width="1180.353" height="1204.316"/>
	</g>
	<defs>
		
			<filter id="Adobe_OpacityMaskFilter_00000018918913476702190400000016935249643696275363_" filterUnits="userSpaceOnUse" x="2318.971" y="1166.936" width="1180.353" height="998.477">
			<feColorMatrix  type="matrix" values="1 0 0 0 0  0 1 0 0 0  0 0 1 0 0  0 0 0 1 0"/>
		</filter>
	</defs>
	
		<mask maskUnits="userSpaceOnUse" x="2318.971" y="1166.936" width="1180.353" height="998.477" id="SVGID_00000060741721029792376360000001742606149291523989_">
		<g style="filter:url(#Adobe_OpacityMaskFilter_00000018918913476702190400000016935249643696275363_);">
			
				<linearGradient id="SVGID_00000064316495643206396390000005671895577944115627_" gradientUnits="userSpaceOnUse" x1="4612.647" y1="991.0536" x2="1970.8235" y2="2090.6521" gradientTransform="matrix(1 0 0 1 90.3342 -71.5232)">
				<stop  offset="0" style="stop-color:#FFFFFF"/>
				<stop  offset="1" style="stop-color:#000000"/>
			</linearGradient>
			
				<rect x="2318.971" y="1166.932" style="clip-path:url(#SVGID_00000125570278919260217470000018151204647845798825_);fill:url(#SVGID_00000064316495643206396390000005671895577944115627_);" width="1180.353" height="998.48"/>
		</g>
	</mask>
	
		<path style="clip-path:url(#SVGID_00000125570278919260217470000018151204647845798825_);mask:url(#SVGID_00000060741721029792376360000001742606149291523989_);fill-rule:evenodd;clip-rule:evenodd;fill:#ECF955;" d="
		M2759.768,1818.488c199.771-279.914,285.942-586.971,739.556-512.03c-394.598-345.361-571.929,13.69-801.142,390.903
		c-26.573,43.72-53.842,87.683-82.213,130.821c-25.803,39.217-52.527,77.746-80.478,114.788
		c-12.187,16.157-24.616,32.025-37.29,47.535c-54.281,66.424-113.341,126.462-179.23,174.908
		c85.417-30.103,157.006-69.234,218.506-114.221c22.455-16.428,43.572-33.632,63.516-51.471
		c28.038-25.056,53.776-51.372,77.721-78.477C2708.12,1887.95,2734.83,1853.423,2759.768,1818.488"/>
	<defs>
		
			<filter id="Adobe_OpacityMaskFilter_00000144313675724840092420000004630153832876577713_" filterUnits="userSpaceOnUse" x="1966.18" y="1708.145" width="1119.488" height="826.002">
			<feColorMatrix  type="matrix" values="1 0 0 0 0  0 1 0 0 0  0 0 1 0 0  0 0 0 1 0"/>
		</filter>
	</defs>
	
		<mask maskUnits="userSpaceOnUse" x="1966.18" y="1708.145" width="1119.488" height="826.002" id="SVGID_00000094580703840436243400000008165986903528259759_">
		<g style="filter:url(#Adobe_OpacityMaskFilter_00000144313675724840092420000004630153832876577713_);">
			
				<linearGradient id="SVGID_00000132067906899470677810000005247232426792977563_" gradientUnits="userSpaceOnUse" x1="1204.6874" y1="2697.0286" x2="3164.1072" y2="1880.1807" gradientTransform="matrix(1 0 0 1 76.4393 -56.9466)">
				<stop  offset="0" style="stop-color:#FFFFFF"/>
				<stop  offset="1" style="stop-color:#000000"/>
			</linearGradient>
			
				<rect x="1966.18" y="1708.145" style="clip-path:url(#SVGID_00000125570278919260217470000018151204647845798825_);fill:url(#SVGID_00000132067906899470677810000005247232426792977563_);" width="1119.488" height="826.006"/>
		</g>
	</mask>
	
		<path style="clip-path:url(#SVGID_00000125570278919260217470000018151204647845798825_);mask:url(#SVGID_00000094580703840436243400000008165986903528259759_);fill-rule:evenodd;clip-rule:evenodd;fill:#102770;" d="
		M1966.18,2287.651c281.123,400.03,521.515,256.489,746.812-29.587c32.956-41.833,65.582-86.722,97.97-133.401
		c10.318-14.872,20.619-29.938,30.897-45.142c16.387-24.249,32.725-48.86,49.018-73.671
		c65.438-99.643,130.146-202.441,194.792-297.705c-61.319,75.953-146.266,167.737-230.574,254.774
		c-23.729,24.49-47.408,48.59-70.482,71.88c-17.676,17.811-35,35.142-51.732,51.779
		C2508.667,2309.406,2304.123,2490.087,1966.18,2287.651"/>
	<g style="clip-path:url(#SVGID_00000125570278919260217470000018151204647845798825_);">
		<defs>
			<path id="SVGID_00000078023288580061666600000012084464663037231755_" d="M2723.207,1048.995
				c81.306,0,147.224,65.678,147.224,146.685c0,81.015-65.917,146.69-147.224,146.69c-81.306,0-147.226-65.675-147.226-146.69
				C2575.98,1114.672,2641.9,1048.995,2723.207,1048.995"/>
		</defs>
		<clipPath id="SVGID_00000136394025599662737080000004269030231043262089_">
			<use xlink:href="#SVGID_00000078023288580061666600000012084464663037231755_"  style="overflow:visible;"/>
		</clipPath>
		
			<linearGradient id="SVGID_00000109740856988662719410000009196160648972284080_" gradientUnits="userSpaceOnUse" x1="2720.3896" y1="1342.298" x2="2727.4734" y2="973.447">
			<stop  offset="0" style="stop-color:#230094"/>
			<stop  offset="1" style="stop-color:#E61EFF"/>
		</linearGradient>
		
			<rect x="2575.98" y="1048.995" style="clip-path:url(#SVGID_00000136394025599662737080000004269030231043262089_);fill:url(#SVGID_00000109740856988662719410000009196160648972284080_);" width="294.45" height="293.374"/>
	</g>
	<defs>
		
			<filter id="Adobe_OpacityMaskFilter_00000001637071886474571040000000737062718563997870_" filterUnits="userSpaceOnUse" x="2575.98" y="1048.995" width="294.45" height="182.287">
			<feColorMatrix  type="matrix" values="1 0 0 0 0  0 1 0 0 0  0 0 1 0 0  0 0 0 1 0"/>
		</filter>
	</defs>
	
		<mask maskUnits="userSpaceOnUse" x="2575.98" y="1048.995" width="294.45" height="182.287" id="SVGID_00000153676109437529874800000007457252183846747307_">
		<g style="filter:url(#Adobe_OpacityMaskFilter_00000001637071886474571040000000737062718563997870_);">
			
				<linearGradient id="SVGID_00000137115542603592225970000016524366270067684493_" gradientUnits="userSpaceOnUse" x1="2652.9912" y1="821.479" x2="2611.7427" y2="1404.0253" gradientTransform="matrix(1 0 0 1 100.4567 -108.4504)">
				<stop  offset="0" style="stop-color:#FFFFFF"/>
				<stop  offset="1" style="stop-color:#000000"/>
			</linearGradient>
			
				<rect x="2575.98" y="1048.995" style="clip-path:url(#SVGID_00000125570278919260217470000018151204647845798825_);fill:url(#SVGID_00000137115542603592225970000016524366270067684493_);" width="294.45" height="182.287"/>
		</g>
	</mask>
	
		<path style="clip-path:url(#SVGID_00000125570278919260217470000018151204647845798825_);mask:url(#SVGID_00000153676109437529874800000007457252183846747307_);fill-rule:evenodd;clip-rule:evenodd;fill:#DCC6E0;" d="
		M2723.207,1120.192c68.992,0,126.891,47.284,142.862,111.09c2.851-11.401,4.362-23.326,4.362-35.602
		c0-81.007-65.917-146.685-147.224-146.685c-81.306,0-147.226,65.678-147.226,146.685c0,12.277,1.513,24.201,4.362,35.602
		C2596.313,1167.476,2654.215,1120.192,2723.207,1120.192"/>
</g>
</svg>
